<?xml version="1.0" standalone="no"?>
<!DOCTYPE svg PUBLIC "-//W3C//DTD SVG 20010904//EN"
 "http://www.w3.org/TR/2001/REC-SVG-20010904/DTD/svg10.dtd">
<svg xmlns="http://www.w3.org/2000/svg" width="120" height="120" version="1.0" viewBox="0 0 90 90">
  <path d="m53 15.8-6.6 2.6.1 7.4c0 6.4-.3 7.5-1.7 7.8-2.2.3-2.4-1.4-.3-2.2 2.8-1.1 1.5-3-3.5-5.1-4-1.7-5-1.8-5-.7 0 .8.5 1.4 1 1.4.6 0 1 .7 1 1.7 0 1.4-.2 1.4-2-.2-1.3-1.1-2-1.4-2-.6 0 .7-1.8 2.9-4 4.8-2.6 2.4-4 4.5-4 6.1a30 30 0 0 0 4.6 9.3c3.7 5.5 4.8 8 5.1 12.2.4 4.9 1 6.7 4.4 14.1 1.5 3.2 7.4 7.6 10.2 7.6 1 0 2.6-.4 3.6-1 2.3-1.2 5.6-12 6.9-22.5.5-4.4 1.5-9.9 2.1-12.1.9-3.4.8-4.8-.5-7.4-1.3-2.5-1.5-4.7-1-9.6.7-6.5-.1-16.5-1.3-16.3L53 15.8zM33 35.4c0 .7-1.1 2.5-2.4 3.9l-2.4 2.6-.4-2.4c-.5-2.5 1.7-5.5 3.9-5.5.7 0 1.3.6 1.3 1.4zm2.5 3.4c.6.4 1.1 2.6 1.3 4.9.3 4.4-.5 5.1-4.2 3.7-1.9-.7-2.2-6.4-.4-8.2 1.4-1.4 1.9-1.5 3.3-.4zm9.3 5.7c.1 3.4-.2 4.5-1.3 4.5-.8 0-1.6-.9-1.6-2-.2-3.3-.4-3.8-1.1-4.6C39.3 41 40 40 42.3 40c2 0 2.3.5 2.5 4.5zM47 61.1c0 2.1-.4 2.7-1.5 2.3-.8-.4-1.5-1.9-1.5-3.5 0-2.1.4-2.7 1.5-2.3.8.4 1.5 1.9 1.5 3.5z"/>
</svg>
